<?xml version="1.0" encoding="utf-8"?>
<!-- Generator: Adobe Illustrator 25.3.1, SVG Export Plug-In . SVG Version: 6.00 Build 0)  -->
<svg version="1.1" id="Layer_1" xmlns="http://www.w3.org/2000/svg" xmlns:xlink="http://www.w3.org/1999/xlink" x="0px" y="0px"
	 viewBox="0 0 105 105" style="enable-background:new 0 0 105 105;" xml:space="preserve">
<style type="text/css">
	.st0{opacity:0.7;}
	.st1{fill:none;stroke:#000000;stroke-width:4;stroke-miterlimit:10;}
</style>
<g class="st0">
	<g>
		<g>
			<g>
				<path d="M99.75,86.5L76.81,63.55c-3.42,5.32-7.94,9.84-13.26,13.26L86.5,99.75c3.66,3.66,9.6,3.66,13.26,0
					C103.42,96.1,103.42,90.16,99.75,86.5z"/>
				<path class="st1" d="M77.5,40C77.5,19.29,60.71,2.5,40,2.5S2.5,19.29,2.5,40S19.29,77.5,40,77.5S77.5,60.71,77.5,40z"/>
			</g>
		</g>
	</g>
	<g>
		<g>
			<path d="M15.14,24.72c-0.15-0.72,0.25-1.46,0.97-1.71c1.99-0.7,3.5,0.47,4.51,1.24c0.95,0.73,1.3,0.93,1.7,0.79
				c0.39-0.14,0.55-0.52,0.83-1.68c0.3-1.23,0.75-3.09,2.74-3.79c1.98-0.7,3.5,0.47,4.51,1.24c0.94,0.73,1.3,0.93,1.7,0.79
				c0.39-0.14,0.54-0.52,0.82-1.68c0.3-1.23,0.75-3.09,2.73-3.79c1.98-0.7,3.5,0.47,4.51,1.24c0.94,0.73,1.3,0.93,1.69,0.79
				c0.78-0.27,1.63,0.13,1.9,0.91c0.27,0.77-0.14,1.63-0.91,1.9c-1.98,0.7-3.5-0.47-4.51-1.24c-0.94-0.73-1.3-0.93-1.69-0.79
				c-0.39,0.14-0.54,0.52-0.82,1.68c-0.3,1.23-0.75,3.09-2.73,3.79c-1.98,0.7-3.5-0.47-4.51-1.24c-0.94-0.73-1.3-0.93-1.69-0.79
				c-0.39,0.14-0.55,0.52-0.83,1.68c-0.3,1.23-0.75,3.09-2.74,3.79c-1.99,0.7-3.5-0.47-4.51-1.24c-0.95-0.73-1.3-0.93-1.7-0.79
				c-0.78,0.27-1.63-0.14-1.9-0.91C15.17,24.84,15.15,24.78,15.14,24.72z"/>
		</g>
		<path d="M71.23,42.37c-1.07-0.14-1.53-0.87-2.2-2.07c-0.68-1.21-1.52-2.71-3.53-2.96c-0.93-0.12-1.69,0.09-2.31,0.43
			c-0.32-1.07-0.87-2.06-1.6-2.89c-0.02-1.09,0.06-1.91,0.85-2.52c0.85-0.66,1.7-0.46,3.02-0.09c1.33,0.38,2.99,0.84,4.59-0.4
			c0.39-0.3,0.46-0.86,0.16-1.25c-0.3-0.39-0.86-0.46-1.25-0.16c-0.85,0.66-1.7,0.46-3.02,0.09c-1.33-0.37-2.99-0.84-4.59,0.4
			c-0.94,0.73-1.32,1.63-1.46,2.49c-0.82-0.51-1.74-0.88-2.74-1.05c-0.05-0.11-0.11-0.22-0.21-0.31c-0.83-0.8-1.41-1.45-1.28-2.48
			c0.14-1.07,0.87-1.53,2.07-2.2c1.21-0.68,2.71-1.52,2.96-3.53c0.06-0.49-0.28-0.93-0.77-1s-0.93,0.28-1,0.77
			c-0.14,1.07-0.87,1.53-2.07,2.2c-1.21,0.68-2.71,1.52-2.96,3.53c-0.16,1.29,0.29,2.24,0.86,2.97c-1.03,0.14-2,0.48-2.87,1
			c-0.1-0.04-0.21-0.06-0.32-0.05c-1.15,0.02-2.02-0.03-2.65-0.85c-0.66-0.85-0.47-1.7-0.09-3.02c0.38-1.33,0.84-2.99-0.4-4.6
			c-0.3-0.39-0.86-0.46-1.25-0.16c-0.39,0.3-0.46,0.86-0.16,1.25c0.66,0.85,0.47,1.7,0.09,3.02c-0.38,1.33-0.84,2.99,0.4,4.59
			c0.71,0.92,1.59,1.3,2.43,1.45c-0.8,0.93-1.38,2.05-1.66,3.31c-0.65,0.63-1.25,1.04-2.13,0.93c-1.07-0.13-1.53-0.87-2.2-2.07
			c-0.68-1.21-1.52-2.71-3.53-2.97c-0.49-0.06-0.93,0.28-1,0.77s0.28,0.93,0.77,1c1.07,0.14,1.53,0.87,2.2,2.07
			c0.68,1.21,1.52,2.71,3.53,2.96c0.87,0.11,1.59-0.06,2.18-0.36c0.12,1.54,0.71,2.97,1.63,4.14c-0.11,0.47-0.32,0.87-0.75,1.2
			c-0.85,0.66-1.7,0.47-3.02,0.09c-1.33-0.37-2.99-0.84-4.6,0.4c-0.39,0.3-0.46,0.86-0.16,1.25c0.15,0.19,0.37,0.31,0.59,0.34
			c0.23,0.03,0.46-0.03,0.66-0.18c0.85-0.66,1.7-0.47,3.02-0.09c1.33,0.38,2.99,0.84,4.59-0.4c0.49-0.38,0.82-0.8,1.05-1.24
			c1.05,0.8,2.31,1.34,3.71,1.52c0.27,0.03,0.53,0.05,0.8,0.06c0.13,0.31,0.18,0.64,0.13,1.02c-0.14,1.07-0.87,1.53-2.07,2.2
			c-1.21,0.68-2.71,1.52-2.97,3.53c-0.06,0.49,0.28,0.93,0.77,1s0.93-0.28,1-0.77c0.14-1.07,0.88-1.53,2.07-2.2
			c1.21-0.68,2.71-1.52,2.96-3.53c0.07-0.53,0.03-1-0.08-1.42c1.57-0.34,2.98-1.17,4.05-2.33c0.39,0.12,0.72,0.33,1.01,0.7
			c0.66,0.85,0.46,1.7,0.09,3.02c-0.38,1.33-0.84,2.99,0.4,4.59c0.15,0.19,0.37,0.31,0.59,0.34c0.23,0.03,0.46-0.03,0.66-0.18
			c0.39-0.3,0.46-0.86,0.16-1.25c-0.66-0.85-0.46-1.7-0.09-3.02c0.38-1.33,0.84-2.99-0.4-4.59c-0.41-0.53-0.87-0.87-1.35-1.11
			c0.45-0.83,0.76-1.75,0.89-2.74c0.05-0.42,0.07-0.83,0.06-1.24c0.52-0.44,1.05-0.69,1.77-0.6c1.07,0.14,1.53,0.87,2.2,2.07
			c0.68,1.21,1.52,2.71,3.53,2.96c0.49,0.06,0.93-0.28,1-0.77C72.06,42.88,71.72,42.44,71.23,42.37z"/>
		<path d="M33.39,44.49l-3.33,4.85c-1.03,1.5-3.11,1.88-4.61,0.85l0,0c-1.5-1.03-1.88-3.11-0.85-4.61l3.33-4.85
			c1.03-1.5,3.11-1.88,4.61-0.85l0,0C34.04,40.92,34.42,42.99,33.39,44.49z"/>
		<path d="M27.7,54.2l-1.48,5.69c-0.46,1.76-2.28,2.83-4.04,2.37l0,0c-1.76-0.46-2.83-2.28-2.37-4.04l1.48-5.69
			c0.46-1.76,2.28-2.83,4.04-2.37l0,0C27.1,50.61,28.16,52.43,27.7,54.2z"/>
	</g>
</g>
</svg>
