<?xml version="1.0" encoding="utf-8"?>
<!-- Generator: Adobe Illustrator 25.2.3, SVG Export Plug-In . SVG Version: 6.00 Build 0)  -->
<svg version="1.1" id="Layer_1" xmlns="http://www.w3.org/2000/svg" xmlns:xlink="http://www.w3.org/1999/xlink" x="0px" y="0px"
	 viewBox="0 0 546 117" style="enable-background:new 0 0 546 117;" xml:space="preserve">
<style type="text/css">
	.st0{fill:#F39200;}
	.st1{fill:none;}
	.st2{fill:#4F65AD;}
	.st3{fill:#F9B233;stroke:#010202;stroke-width:0.5;stroke-miterlimit:10;}
</style>
<g>
	<g>
		<path class="st0" d="M13.4,82.74V15.1h23.67c6.35,0,11.32,1.51,14.91,4.54c3.59,3.03,5.38,7.21,5.38,12.55
			c0,3.32-0.93,6.27-2.8,8.86c-1.87,2.58-4.44,4.46-7.7,5.65c4.33,0.83,7.74,2.75,10.23,5.74c2.49,3,3.74,6.63,3.74,10.9
			c0,6.11-2,10.87-6.01,14.28c-4,3.41-9.63,5.12-16.87,5.12H13.4z M36.01,21.68H21.06V44.2h14.6c4.75,0,8.23-0.96,10.46-2.89
			c2.22-1.93,3.34-4.97,3.34-9.12c0-3.44-1.14-6.05-3.43-7.83C43.74,22.57,40.4,21.68,36.01,21.68z M37.17,50.61H21.06v25.54h17.35
			c4.57,0,8.1-1.13,10.59-3.38c2.49-2.25,3.74-5.4,3.74-9.43C52.74,54.85,47.55,50.61,37.17,50.61z"/>
		<path class="st0" d="M78.68,82.74l19.25-47.35h6.17l19.25,47.35h-6.04l-5.61-14.33H90.02l-5.61,14.33H78.68z M91.89,63.74h17.94
			l-8.97-22.93L91.89,63.74z"/>
		<path class="st0" d="M160.36,83.42c-3.61,0-6.93-0.59-9.94-1.78c-3.01-1.18-5.62-2.84-7.82-4.98c-2.2-2.14-3.9-4.67-5.11-7.6
			c-1.21-2.93-1.81-6.14-1.81-9.63c0-3.61,0.61-6.94,1.84-9.97c1.22-3.03,2.97-5.65,5.23-7.85c2.26-2.2,4.94-3.9,8.04-5.11
			c3.09-1.2,6.51-1.81,10.25-1.81c2.45,0,5,0.35,7.66,1.06c2.66,0.71,4.94,1.66,6.85,2.87l-1,5.05c-2.74-1.37-5.2-2.36-7.38-2.96
			c-2.18-0.6-4.43-0.9-6.76-0.9c-3.7,0-6.97,0.82-9.81,2.46c-2.85,1.64-5.06,3.9-6.63,6.79c-1.58,2.89-2.37,6.24-2.37,10.06
			c0,3.91,0.79,7.29,2.37,10.16c1.58,2.87,3.79,5.09,6.63,6.67c2.84,1.58,6.2,2.37,10.06,2.37c2.28,0,4.69-0.31,7.23-0.93
			c2.53-0.62,5-1.5,7.41-2.62l0.62,4.98C171.03,82.2,165.84,83.42,160.36,83.42z"/>
		<path class="st1" d="M226.94,84.16c-4.87,0-9.41-0.89-13.62-2.67c-4.21-1.78-7.91-4.27-11.08-7.48c-3.17-3.2-5.64-6.94-7.39-11.21
			c-1.75-4.27-2.63-8.9-2.63-13.88c0-4.92,0.89-9.52,2.67-13.8c1.78-4.27,4.26-8.01,7.43-11.21c3.17-3.2,6.85-5.71,11.04-7.52
			c4.18-1.81,8.71-2.71,13.57-2.71c4.92,0,9.48,0.89,13.66,2.67c4.18,1.78,7.86,4.27,11.04,7.48c3.17,3.2,5.64,6.94,7.39,11.21
			c1.75,4.27,2.63,8.9,2.63,13.88c0,5.04-0.91,9.7-2.71,13.97c-1.81,4.27-4.32,8.01-7.52,11.21c-3.2,3.2-6.88,5.67-11.04,7.39
			l16.2,17.44h-10.59l-13.53-15.22C230.68,84.01,228.84,84.16,226.94,84.16z M226.94,76.86c5.1,0,9.62-1.2,13.57-3.6
			c3.95-2.4,7.04-5.71,9.3-9.92c2.25-4.21,3.38-9.02,3.38-14.42c0-5.4-1.13-10.2-3.38-14.42c-2.25-4.21-5.35-7.52-9.3-9.92
			c-3.95-2.4-8.47-3.6-13.57-3.6c-5.04,0-9.55,1.2-13.53,3.6c-3.98,2.4-7.09,5.71-9.34,9.92c-2.26,4.21-3.38,9.02-3.38,14.42
			c0,5.4,1.13,10.21,3.38,14.42c2.25,4.21,5.37,7.52,9.34,9.92C217.39,75.66,221.9,76.86,226.94,76.86z"/>
		<path class="st2" d="M303.02,83.73c-6.23,0-11.08-1.8-14.55-5.39c-3.47-3.59-5.2-8.61-5.2-15.04V35.39h5.61V62.8
			c0,5.19,1.21,9.13,3.64,11.81c2.43,2.68,5.99,4.02,10.68,4.02c4.69,0,8.25-1.34,10.68-4.02c2.43-2.68,3.64-6.61,3.64-11.81V35.39
			h5.61V63.3c0,6.44-1.78,11.45-5.33,15.04C314.27,81.94,309.34,83.73,303.02,83.73z"/>
		<path class="st2" d="M343.27,82.74V35.39h29.16v4.8h-23.55v15.82h21.06v4.8h-21.06v17.13h24.48v4.8H343.27z"/>
		<path class="st2" d="M391.92,82.74V35.39h13.52c3.28,0,6.14,0.59,8.57,1.78c2.43,1.18,4.32,2.85,5.67,4.98
			c1.35,2.14,2.03,4.64,2.03,7.51c0,3.12-0.82,5.77-2.46,7.97c-1.64,2.2-3.79,3.82-6.45,4.86l13.64,20.25h-6.67L407.31,63.8
			c-0.67,0.04-1.35,0.06-2.06,0.06h-7.91v18.88H391.92z M404.7,40.06h-7.35v19.13h6.85c7.85,0,11.77-3.18,11.77-9.53
			c0-3.11-0.96-5.49-2.9-7.13C411.14,40.88,408.35,40.06,404.7,40.06z"/>
		<path class="st2" d="M455.03,82.74V62.3l-17.82-26.91h6.29L458.03,58l14.58-22.62h5.92l-17.88,26.98v20.37H455.03z"/>
		<path class="st2" d="M488.36,82.74l19.25-47.35h6.17l19.25,47.35h-6.04l-5.61-14.33H499.7l-5.61,14.33H488.36z M501.57,63.74
			h17.94l-8.97-22.93L501.57,63.74z"/>
	</g>
	<g>
		<g>
			<g>
				<path class="st2" d="M286.29,96.58l-22.94-22.94c-3.42,5.32-7.94,9.84-13.26,13.26l22.94,22.94c3.66,3.66,9.6,3.66,13.26,0
					C289.95,106.18,289.95,100.24,286.29,96.58z"/>
				<path class="st2" d="M264.03,50.08c0-20.71-16.79-37.5-37.5-37.5s-37.5,16.79-37.5,37.5s16.79,37.5,37.5,37.5
					S264.03,70.79,264.03,50.08z M226.53,78.21c-15.51,0-28.12-12.62-28.12-28.12s12.62-28.12,28.12-28.12s28.12,12.62,28.12,28.12
					S242.04,78.21,226.53,78.21z"/>
			</g>
		</g>
	</g>
	<g>
		<g>
			<path class="st3" d="M208.57,45.62c-0.41-0.27-0.57-0.8-0.35-1.25c0.6-1.26,1.86-1.42,2.69-1.53c0.78-0.1,1.05-0.17,1.17-0.42
				s0.01-0.5-0.4-1.17c-0.44-0.72-1.1-1.8-0.49-3.06c0.6-1.26,1.86-1.42,2.69-1.53c0.78-0.1,1.05-0.17,1.17-0.42
				c0.12-0.25,0.01-0.5-0.4-1.17c-0.44-0.72-1.1-1.8-0.5-3.06c0.6-1.26,1.86-1.42,2.69-1.53c0.78-0.1,1.05-0.17,1.17-0.42
				c0.24-0.49,0.83-0.7,1.32-0.46c0.49,0.23,0.7,0.83,0.46,1.32c-0.6,1.26-1.86,1.42-2.69,1.53c-0.78,0.1-1.05,0.17-1.17,0.42
				c-0.12,0.25-0.01,0.5,0.4,1.17c0.44,0.72,1.1,1.8,0.5,3.06c-0.6,1.26-1.86,1.42-2.69,1.53c-0.78,0.1-1.05,0.17-1.17,0.42
				c-0.12,0.25-0.01,0.5,0.4,1.17c0.44,0.72,1.1,1.8,0.49,3.06c-0.6,1.26-1.86,1.42-2.69,1.53c-0.78,0.1-1.05,0.17-1.17,0.42
				c-0.24,0.49-0.83,0.7-1.32,0.46C208.65,45.67,208.61,45.64,208.57,45.62z"/>
		</g>
		<g>
			<path class="st3" d="M216.49,65.74c0.21-0.44,0.72-0.67,1.2-0.51c1.33,0.43,1.66,1.65,1.88,2.47c0.21,0.76,0.31,1.01,0.58,1.1
				c0.26,0.09,0.5-0.06,1.11-0.55c0.65-0.53,1.64-1.33,2.96-0.9c1.33,0.43,1.66,1.65,1.88,2.47c0.21,0.76,0.31,1.01,0.58,1.1
				c0.26,0.08,0.49-0.06,1.11-0.55c0.65-0.53,1.64-1.33,2.96-0.9c1.33,0.43,1.66,1.65,1.88,2.47c0.21,0.76,0.31,1.01,0.57,1.1
				c0.52,0.17,0.81,0.73,0.64,1.25c-0.17,0.52-0.73,0.8-1.25,0.64c-1.33-0.43-1.66-1.65-1.88-2.47c-0.21-0.76-0.31-1.01-0.57-1.1
				c-0.26-0.08-0.49,0.06-1.11,0.55c-0.65,0.53-1.64,1.33-2.96,0.9c-1.33-0.43-1.66-1.65-1.88-2.47c-0.21-0.76-0.31-1.01-0.58-1.1
				c-0.26-0.09-0.5,0.06-1.11,0.55c-0.65,0.53-1.64,1.33-2.97,0.9c-1.33-0.43-1.66-1.65-1.88-2.47c-0.21-0.76-0.31-1.01-0.58-1.1
				c-0.52-0.17-0.8-0.73-0.64-1.25C216.46,65.82,216.47,65.78,216.49,65.74z"/>
		</g>
		<path class="st3" d="M250.35,53.09c-1.07-0.14-1.53-0.87-2.2-2.07c-0.68-1.21-1.52-2.71-3.53-2.96c-0.93-0.12-1.69,0.09-2.31,0.43
			c-0.32-1.07-0.87-2.06-1.6-2.89c-0.02-1.09,0.06-1.91,0.85-2.52c0.85-0.66,1.7-0.46,3.02-0.09c1.33,0.38,2.99,0.84,4.59-0.4
			c0.39-0.3,0.46-0.86,0.16-1.25s-0.86-0.46-1.25-0.16c-0.85,0.66-1.7,0.46-3.02,0.09c-1.33-0.37-2.99-0.84-4.59,0.4
			c-0.94,0.73-1.32,1.63-1.46,2.49c-0.82-0.51-1.74-0.88-2.74-1.05c-0.05-0.11-0.11-0.22-0.21-0.31c-0.83-0.8-1.41-1.45-1.28-2.48
			c0.14-1.07,0.87-1.53,2.07-2.2c1.21-0.68,2.71-1.52,2.96-3.53c0.06-0.49-0.28-0.93-0.77-1c-0.49-0.06-0.93,0.28-1,0.77
			c-0.14,1.07-0.87,1.53-2.07,2.2c-1.21,0.68-2.71,1.52-2.96,3.53c-0.16,1.29,0.29,2.24,0.86,2.97c-1.03,0.14-2,0.48-2.87,1
			c-0.1-0.04-0.21-0.06-0.32-0.05c-1.15,0.02-2.02-0.03-2.65-0.85c-0.66-0.85-0.47-1.7-0.09-3.02c0.38-1.33,0.84-2.99-0.4-4.6
			c-0.3-0.39-0.86-0.46-1.25-0.16c-0.39,0.3-0.46,0.86-0.16,1.25c0.66,0.85,0.47,1.7,0.09,3.02c-0.38,1.33-0.84,2.99,0.4,4.59
			c0.71,0.92,1.59,1.3,2.43,1.45c-0.8,0.93-1.38,2.05-1.66,3.31c-0.65,0.63-1.25,1.04-2.13,0.93c-1.07-0.13-1.53-0.87-2.2-2.07
			c-0.68-1.21-1.52-2.71-3.53-2.97c-0.49-0.06-0.93,0.28-1,0.77c-0.06,0.49,0.28,0.93,0.77,1c1.07,0.14,1.53,0.87,2.2,2.07
			c0.68,1.21,1.52,2.71,3.53,2.96c0.87,0.11,1.59-0.06,2.18-0.36c0.12,1.54,0.71,2.97,1.63,4.14c-0.11,0.47-0.32,0.87-0.75,1.2
			c-0.85,0.66-1.7,0.47-3.02,0.09c-1.33-0.37-2.99-0.84-4.6,0.4c-0.39,0.3-0.46,0.86-0.16,1.25c0.15,0.19,0.37,0.31,0.59,0.34
			s0.46-0.03,0.66-0.18c0.85-0.66,1.7-0.47,3.02-0.09c1.33,0.38,2.99,0.84,4.59-0.4c0.49-0.38,0.82-0.8,1.05-1.24
			c1.05,0.8,2.31,1.34,3.71,1.52c0.27,0.03,0.53,0.05,0.8,0.06c0.13,0.31,0.18,0.64,0.13,1.02c-0.14,1.07-0.87,1.53-2.07,2.2
			c-1.21,0.68-2.71,1.52-2.97,3.53c-0.06,0.49,0.28,0.93,0.77,1c0.49,0.06,0.93-0.28,1-0.77c0.14-1.07,0.88-1.53,2.07-2.2
			c1.21-0.68,2.71-1.52,2.96-3.53c0.07-0.53,0.03-1-0.08-1.42c1.57-0.34,2.98-1.17,4.05-2.33c0.39,0.12,0.72,0.33,1.01,0.7
			c0.66,0.85,0.46,1.7,0.09,3.02c-0.38,1.33-0.84,2.99,0.4,4.59c0.15,0.19,0.37,0.31,0.59,0.34c0.23,0.03,0.46-0.03,0.66-0.18
			c0.39-0.3,0.46-0.86,0.16-1.25c-0.66-0.85-0.46-1.7-0.09-3.02c0.38-1.33,0.84-2.99-0.4-4.59c-0.41-0.53-0.87-0.87-1.35-1.11
			c0.45-0.83,0.76-1.75,0.89-2.74c0.05-0.42,0.07-0.83,0.06-1.24c0.52-0.44,1.05-0.69,1.77-0.6c1.07,0.14,1.53,0.87,2.2,2.07
			c0.68,1.21,1.52,2.71,3.53,2.96c0.49,0.06,0.93-0.28,1-0.77C251.19,53.59,250.84,53.15,250.35,53.09z"/>
		<path class="st3" d="M216.47,53.74l-2.57,3.73c-0.8,1.16-2.39,1.45-3.55,0.66l0,0c-1.16-0.8-1.45-2.39-0.66-3.55l2.57-3.73
			c0.8-1.16,2.39-1.45,3.55-0.66l0,0C216.97,50.99,217.26,52.59,216.47,53.74z"/>
		<path class="st3" d="M212.09,61.22l-1.14,4.38c-0.35,1.36-1.76,2.18-3.11,1.83l0,0c-1.36-0.35-2.18-1.76-1.83-3.11l1.14-4.38
			c0.35-1.36,1.76-2.18,3.11-1.83l0,0C211.62,58.46,212.44,59.86,212.09,61.22z"/>
		<path class="st3" d="M231.64,25.61l3.82,2.43c1.19,0.75,1.54,2.34,0.79,3.52l0,0c-0.75,1.19-2.34,1.54-3.52,0.79l-3.82-2.43
			c-1.19-0.75-1.54-2.34-0.79-3.52l0,0C228.87,25.21,230.46,24.86,231.64,25.61z"/>
	</g>
</g>
</svg>
